<!DOCTYPE svg PUBLIC "-//W3C//DTD SVG 1.1//EN" "http://www.w3.org/Graphics/SVG/1.1/DTD/svg11.dtd">
<!-- Uploaded to: SVG Repo, www.svgrepo.com, Transformed by: SVG Repo Mixer Tools -->
<svg fill="#302f3c" version="1.1" id="Capa_1" xmlns="http://www.w3.org/2000/svg" xmlns:xlink="http://www.w3.org/1999/xlink" width="236px" height="236px" viewBox="-275.28 -275.28 1162.30 1162.30" xml:space="preserve" transform="rotate(0)" stroke="#302f3c" stroke-width="0.0061173600000000005">
<g id="SVGRepo_bgCarrier" stroke-width="0" transform="translate(0,0), scale(1)">
<path transform="translate(-275.28, -275.28), scale(36.321875)" d="M16,25.74979925341904C18.542093523826082,25.634344937583638,19.70407407270713,30.259082737648658,22.23625796260521,30.00686471556429C24.348689791305272,29.796456071962883,25.287225127276013,26.850574173988466,25.749711668107217,24.778679816701576C26.19237917029716,22.795572809320863,23.732292878778626,20.606717097271602,24.72970778208356,18.83645400075663C26.0893140287143,16.42335514267209,31.152306869447507,17.088008882139388,31.620909920546524,14.358176208646942C32.01282162396669,12.075106624248564,28.067869642797966,11.504147983870796,26.230541345330984,10.093394200317565C24.946142866003118,9.107195916211314,23.662548226562194,8.20832191746969,22.359453945966067,7.246962564703248C21.047834449238984,6.279313723613598,20.095987779874537,4.229137790422171,18.472116356940802,4.36960695300214C16.624132968535864,4.529462391902569,16.044470917765747,7.349327071606859,14.287893840250476,7.945173810218851C12.81407007236963,8.44510808388183,10.977386405933602,6.439341030102955,9.709555770492113,7.341946290773119C8.448093926931119,8.240017424490713,9.551428460264928,10.489312358108698,8.807047297958857,11.847146821208295C8.085172183698441,13.163927736458971,6.489658230246861,13.720417909964315,5.564399797330092,14.903174221160032C4.177902443451774,16.675531475539422,1.9820234251047866,18.298794531234627,1.9996940132626086,20.54897516837845C2.01559157931801,22.573378374207355,4.433653361267254,23.701430019594486,5.646223039489987,25.322582649001C6.963626864607333,27.083893948001567,7.308707460241235,30.494341965202164,9.50633067800094,30.585020094783516C12.23252874672263,30.697508231850062,13.274291899414543,25.87359279640658,16,25.74979925341904" fill="#7ed0ec" strokewidth="0"/>
</g>
<g id="SVGRepo_tracerCarrier" stroke-linecap="round" stroke-linejoin="round" stroke="#CCCCCC" stroke-width="47.715408000000004"> <g> <path d="M611.637,416.769v35.301c-16.7-3.5-29.9-9.602-41.4-15c-17.6-8.801-31.7-15-51.899-15c-0.9,0-0.9,0-0.9,0 c-20.3,0.898-34.4,7.1-51.9,15c-17.5,7.898-40.6,18.6-70.5,18.6c-29.899,0-52.8-10.5-70.5-18.6c-17.6-8.801-31.7-15-51.899-15 c-20.3,0.898-34.4,7.1-51.9,15c-11.5,5.299-25.5,11.5-41.4,15v-35.301c7.9-2.6,15.8-6.199,23.7-9.6c17.6-7.9,39.6-18.6,69.5-18.6 s51.9,10.5,69.5,18.6c18.601,7.9,31.7,14.1,52.801,14.1c21.199,0,35.3-6.199,52.8-14.1c18.6-7.9,40.6-18.6,70.5-18.6h0.899 c29.9,0,51.9,10.5,69.5,18.6C596.736,411.569,603.736,414.169,611.637,416.769z M195.037,392.169c-7.9,3.5-14.1,7.1-21.2,8.799 l-11.5,4.5v12.4l-77.4-20.4l-4.5,17.602l-4.4,15.799c-1.7,6.201-7.1,9.6-13.2,7.9l-54.5-15c-6.2-0.9-9.6-7.1-7.9-13.199l4.4-16.701 l32.7-121.5c3.5-13.2,7.9-22.9,18.6-35.3l105.5-123.2c8.8-10.5,25.5-17.6,40.6-18.6c4.5,0,9.6,0,12.4,0.9l192.8,51.9 c18.6,5.3,36.1,24.6,39.6,43.2l29.9,159.4c1.7,10.5,1.7,18.6,0.9,26.5c-15,4.5-28.2,10.5-38.7,15c-2.601,1.699-4.5,2.6-7.101,3.5 c-2.6-13.201-12.399-25.5-26.5-29.1c-19.399-5.301-37.8,6.199-43.199,24.6c-0.9,2.6-0.9,4.5-0.9,7.1c-3.5-1.699-7.9-3.5-13.2-6.199 c-17.6-7.9-43.2-20.301-76.6-20.301C238.236,371.868,212.637,384.269,195.037,392.169z M109.637,286.469c-2.6-0.9-4.5-0.9-7.1-0.9 s-4.5,0-6.2,0c-14.1,0.9-26.5,11.5-29.1,25.5c-5.3,18.6,6.2,37.799,24.6,43.199c18.6,5.301,37.8-6.199,43.2-24.6 C139.537,311.169,128.137,291.668,109.637,286.469z M426.736,332.269l-20.3-110.1c-4.5-21.2-11.5-28.2-30.8-33.5l-149.7-40.6 c-5.3-1.7-9.6-2.6-13.2-2.6c-1.7,0-2.6,0-4.5,0c-9.6,0-16.7,5.3-26.5,15.8l-72.2,85.5L426.736,332.269z M519.137,449.368h-0.9 c-29.899,0-51.899,10.5-70.5,18.6c-18.6,8.102-31.7,14.102-52.8,14.102c-21.2,0-34.4-6.201-52.8-14.102 c-17.601-8.799-39.6-18.6-69.5-18.6c-29.9,0-51.9,10.5-69.5,18.6c-7.9,3.5-15.8,7.102-23.7,9.602v35.299c15.8-3.5,29.9-9.6,41.4-15 c17.6-7.9,31.7-15,51.9-15c20.2,0,34.4,7.1,51.9,15c17.6,7.9,40.6,18.6,70.5,18.6c29.899,0,52.8-9.6,70.5-18.6 c17.6-7.9,31.7-15,51.899-15c0,0,0,0,0.9,0c20.3,0,34.4,7.1,51.9,15c11.5,5.301,24.6,11.5,41.399,15v-35.299 c-7.899-2.602-15-5.301-22.899-9.602C571.036,459.868,549.036,449.368,519.137,449.368z"/> </g> </g>
<g id="SVGRepo_iconCarrier"> <g> <path d="M611.637,416.769v35.301c-16.7-3.5-29.9-9.602-41.4-15c-17.6-8.801-31.7-15-51.899-15c-0.9,0-0.9,0-0.9,0 c-20.3,0.898-34.4,7.1-51.9,15c-17.5,7.898-40.6,18.6-70.5,18.6c-29.899,0-52.8-10.5-70.5-18.6c-17.6-8.801-31.7-15-51.899-15 c-20.3,0.898-34.4,7.1-51.9,15c-11.5,5.299-25.5,11.5-41.4,15v-35.301c7.9-2.6,15.8-6.199,23.7-9.6c17.6-7.9,39.6-18.6,69.5-18.6 s51.9,10.5,69.5,18.6c18.601,7.9,31.7,14.1,52.801,14.1c21.199,0,35.3-6.199,52.8-14.1c18.6-7.9,40.6-18.6,70.5-18.6h0.899 c29.9,0,51.9,10.5,69.5,18.6C596.736,411.569,603.736,414.169,611.637,416.769z M195.037,392.169c-7.9,3.5-14.1,7.1-21.2,8.799 l-11.5,4.5v12.4l-77.4-20.4l-4.5,17.602l-4.4,15.799c-1.7,6.201-7.1,9.6-13.2,7.9l-54.5-15c-6.2-0.9-9.6-7.1-7.9-13.199l4.4-16.701 l32.7-121.5c3.5-13.2,7.9-22.9,18.6-35.3l105.5-123.2c8.8-10.5,25.5-17.6,40.6-18.6c4.5,0,9.6,0,12.4,0.9l192.8,51.9 c18.6,5.3,36.1,24.6,39.6,43.2l29.9,159.4c1.7,10.5,1.7,18.6,0.9,26.5c-15,4.5-28.2,10.5-38.7,15c-2.601,1.699-4.5,2.6-7.101,3.5 c-2.6-13.201-12.399-25.5-26.5-29.1c-19.399-5.301-37.8,6.199-43.199,24.6c-0.9,2.6-0.9,4.5-0.9,7.1c-3.5-1.699-7.9-3.5-13.2-6.199 c-17.6-7.9-43.2-20.301-76.6-20.301C238.236,371.868,212.637,384.269,195.037,392.169z M109.637,286.469c-2.6-0.9-4.5-0.9-7.1-0.9 s-4.5,0-6.2,0c-14.1,0.9-26.5,11.5-29.1,25.5c-5.3,18.6,6.2,37.799,24.6,43.199c18.6,5.301,37.8-6.199,43.2-24.6 C139.537,311.169,128.137,291.668,109.637,286.469z M426.736,332.269l-20.3-110.1c-4.5-21.2-11.5-28.2-30.8-33.5l-149.7-40.6 c-5.3-1.7-9.6-2.6-13.2-2.6c-1.7,0-2.6,0-4.5,0c-9.6,0-16.7,5.3-26.5,15.8l-72.2,85.5L426.736,332.269z M519.137,449.368h-0.9 c-29.899,0-51.899,10.5-70.5,18.6c-18.6,8.102-31.7,14.102-52.8,14.102c-21.2,0-34.4-6.201-52.8-14.102 c-17.601-8.799-39.6-18.6-69.5-18.6c-29.9,0-51.9,10.5-69.5,18.6c-7.9,3.5-15.8,7.102-23.7,9.602v35.299c15.8-3.5,29.9-9.6,41.4-15 c17.6-7.9,31.7-15,51.9-15c20.2,0,34.4,7.1,51.9,15c17.6,7.9,40.6,18.6,70.5,18.6c29.899,0,52.8-9.6,70.5-18.6 c17.6-7.9,31.7-15,51.899-15c0,0,0,0,0.9,0c20.3,0,34.4,7.1,51.9,15c11.5,5.301,24.6,11.5,41.399,15v-35.299 c-7.899-2.602-15-5.301-22.899-9.602C571.036,459.868,549.036,449.368,519.137,449.368z"/> </g> </g>
</svg>