<!DOCTYPE svg PUBLIC "-//W3C//DTD SVG 1.1//EN" "http://www.w3.org/Graphics/SVG/1.1/DTD/svg11.dtd">
<!-- Uploaded to: SVG Repo, www.svgrepo.com, Transformed by: SVG Repo Mixer Tools -->
<svg fill="#32226d" height="800px" width="800px" version="1.1" id="Layer_1" xmlns="http://www.w3.org/2000/svg" xmlns:xlink="http://www.w3.org/1999/xlink" viewBox="-148.48 -148.48 808.96 808.96" xml:space="preserve" stroke="#32226d">
<g id="SVGRepo_bgCarrier" stroke-width="0">
<path transform="translate(-148.48, -148.48), scale(50.56)" fill="#eae1cc" d="M9.166.33a2.25 2.25 0 00-2.332 0l-5.25 3.182A2.25 2.25 0 00.5 5.436v5.128a2.25 2.25 0 001.084 1.924l5.25 3.182a2.25 2.25 0 002.332 0l5.25-3.182a2.25 2.25 0 001.084-1.924V5.436a2.25 2.25 0 00-1.084-1.924L9.166.33z" strokewidth="0"/>
</g>
<g id="SVGRepo_tracerCarrier" stroke-linecap="round" stroke-linejoin="round"/>
<g id="SVGRepo_iconCarrier"> <g> <g> <path d="M442.132,57.768H332.987v-9.411c0-4.679-3.792-8.472-8.472-8.472h-20.905C299.59,17.247,279.768,0,255.994,0 c-23.773,0-43.597,17.247-47.615,39.886h-20.905c-4.679,0-8.472,3.793-8.472,8.472v9.411H69.868c-4.679,0-8.472,3.793-8.472,8.472 v360.076c0,4.679,3.793,8.472,8.472,8.472s8.472-3.793,8.472-8.472V74.713h100.661v41.42c0,4.679,3.793,8.472,8.472,8.472h137.041 c4.68,0,8.472-3.793,8.472-8.472v-7.53h66.784v41.515c0,4.679,3.792,8.472,8.472,8.472s8.472-3.793,8.472-8.472V100.13 c0-4.679-3.792-8.472-8.472-8.472h-75.256V74.713H433.66v420.342H78.34v-43.322c0-4.679-3.793-8.472-8.472-8.472 s-8.472,3.793-8.472,8.472v51.794c0,4.679,3.793,8.472,8.472,8.472h372.265c4.68,0,8.472-3.793,8.472-8.472V66.24 C450.605,61.561,446.811,57.768,442.132,57.768z M316.043,107.661H195.947v-0.001V56.83h20.163c4.679,0,8.472-3.793,8.472-8.472 c0-17.321,14.092-31.413,31.413-31.413s31.412,14.092,31.412,31.413c0,4.679,3.792,8.472,8.472,8.472h20.163V107.661z"/> </g> </g> <g> <g> <path d="M408.243,167.626c-4.68,0-8.472,3.793-8.472,8.472v285.067H112.23V108.602h51.143c4.679,0,8.472-3.793,8.472-8.472 c0-4.679-3.793-8.472-8.472-8.472h-59.615c-4.679,0-8.472,3.793-8.472,8.472v369.508c0,4.679,3.793,8.472,8.472,8.472h304.486 c4.68,0,8.472-3.793,8.472-8.472V176.099C416.715,171.42,412.923,167.626,408.243,167.626z"/> </g> </g> <g> <g> <path d="M329.722,175.436H182.276c-4.679,0-8.472,3.793-8.472,8.472s3.793,8.472,8.472,8.472h147.446 c4.68,0,8.472-3.793,8.472-8.472S334.402,175.436,329.722,175.436z"/> </g> </g> <g> <g> <circle cx="255.99" cy="48.358" r="8.472"/> </g> </g> <g> <g> <path d="M352.978,287.265H159.02c-4.679,0-8.472,3.793-8.472,8.472s3.793,8.472,8.472,8.472h193.959 c4.68,0,8.472-3.793,8.472-8.472S357.658,287.265,352.978,287.265z"/> </g> </g> <g> <g> <path d="M369.009,231.351h-226.02c-4.679,0-8.472,3.793-8.472,8.472s3.793,8.472,8.472,8.472h226.02 c4.68,0,8.472-3.793,8.472-8.472S373.689,231.351,369.009,231.351z"/> </g> </g> <g> <g> <path d="M315.292,374.671c-0.917-2.823-3.245-4.96-6.136-5.634l-29.991-6.985l-15.911-26.365 c-1.533-2.542-4.285-4.095-7.253-4.095c-2.968,0-5.719,1.553-7.253,4.095l-15.91,26.365l-29.991,6.985 c-2.891,0.673-5.219,2.811-6.136,5.634s-0.29,5.921,1.653,8.165l20.159,23.279l-2.625,30.682c-0.253,2.957,1.06,5.831,3.461,7.577 c2.401,1.743,5.539,2.105,8.276,0.95l28.369-11.978l28.369,11.978c1.06,0.447,2.18,0.668,3.294,0.668 c1.762,0,3.51-0.549,4.981-1.618c2.402-1.745,3.714-4.619,3.461-7.577l-2.625-30.682l20.159-23.279 C315.582,380.591,316.209,377.494,315.292,374.671z M278.33,397.727c-1.497,1.729-2.232,3.99-2.037,6.268l1.733,20.258 l-18.731-7.908c-1.054-0.445-2.175-0.668-3.295-0.668c-1.121,0-2.242,0.223-3.295,0.668l-18.731,7.908l1.733-20.258 c0.195-2.279-0.54-4.539-2.037-6.268l-13.31-15.37l19.802-4.611c2.228-0.518,4.15-1.916,5.332-3.875l10.505-17.408l10.506,17.408 c1.182,1.958,3.104,3.355,5.332,3.875l19.802,4.611L278.33,397.727z"/> </g> </g> </g>
</svg>