<!DOCTYPE svg PUBLIC "-//W3C//DTD SVG 1.1//EN" "http://www.w3.org/Graphics/SVG/1.1/DTD/svg11.dtd">
<!-- Uploaded to: SVG Repo, www.svgrepo.com, Transformed by: SVG Repo Mixer Tools -->
<svg height="800px" width="800px" version="1.1" id="Layer_1" xmlns="http://www.w3.org/2000/svg" xmlns:xlink="http://www.w3.org/1999/xlink" viewBox="-112.64 -112.64 737.28 737.28" xml:space="preserve" fill="#000000">
<g id="SVGRepo_bgCarrier" stroke-width="0">
<rect x="-112.64" y="-112.64" width="737.28" height="737.28" rx="368.64" fill="#7ed0ec" strokewidth="0"/>
</g>
<g id="SVGRepo_tracerCarrier" stroke-linecap="round" stroke-linejoin="round"/>
<g id="SVGRepo_iconCarrier"> <g transform="translate(0 -1)"> <path style="fill:#24AE5F;" d="M503.467,146.067c0,56.55-45.85,102.4-102.4,102.4s-102.4-45.85-102.4-102.4 s45.85-102.4,102.4-102.4S503.467,89.516,503.467,146.067"/> <path style="fill:#804537;" d="M401.067,342.333c-4.719,0-8.533-3.814-8.533-8.533V180.2c0-4.719,3.814-8.533,8.533-8.533 c4.719,0,8.533,3.814,8.533,8.533v153.6C409.6,338.519,405.786,342.333,401.067,342.333"/> <g> <path style="fill:#4482C3;" d="M102.4,316.733c-4.719,0-8.533-3.814-8.533-8.533v-59.733c0-4.719,3.814-8.533,8.533-8.533 c4.719,0,8.533,3.814,8.533,8.533V308.2C110.933,312.919,107.119,316.733,102.4,316.733"/> <path style="fill:#4482C3;" d="M102.4,257c-4.719,0-8.533-3.814-8.533-8.533c0-18.825-15.309-34.133-34.133-34.133 S25.6,229.642,25.6,248.467c0,4.719-3.814,8.533-8.533,8.533s-8.533-3.814-8.533-8.533c0-28.237,22.963-51.2,51.2-51.2 s51.2,22.963,51.2,51.2C110.933,253.186,107.119,257,102.4,257"/> <path style="fill:#4482C3;" d="M187.733,257c-4.719,0-8.533-3.814-8.533-8.533c0-18.825-15.309-34.133-34.133-34.133 c-18.825,0-34.133,15.309-34.133,34.133c0,4.719-3.814,8.533-8.533,8.533c-4.719,0-8.533-3.814-8.533-8.533 c0-28.237,22.963-51.2,51.2-51.2s51.2,22.963,51.2,51.2C196.267,253.186,192.452,257,187.733,257"/> </g> <path style="fill:#24AE5F;" d="M460.8,376.467c-6.238,0-12.109,1.408-17.451,3.814c0.111-1.28,0.384-2.509,0.384-3.814 c0-23.561-19.106-42.667-42.667-42.667c-11.878,0-22.605,4.873-30.345,12.706c-8.115-17.562-25.839-29.773-46.455-29.773 c-28.279,0-51.2,22.921-51.2,51.2c0,3.311,0.341,6.537,0.939,9.668c-3.055-0.691-6.204-1.135-9.472-1.135 c-23.561,0-42.667,19.106-42.667,42.667c0,23.561,19.106,42.667,42.667,42.667H460.8c23.561,0,42.667-19.106,42.667-42.667 C503.467,395.573,484.361,376.467,460.8,376.467"/> <g> <path style="fill:#1B8E4A;" d="M358.4,470.333c-4.719,0-8.533-3.814-8.533-8.533v-59.733c0-4.719,3.814-8.533,8.533-8.533 c4.719,0,8.533,3.814,8.533,8.533V461.8C366.933,466.519,363.119,470.333,358.4,470.333"/> <path style="fill:#1B8E4A;" d="M358.4,470.333c-2.185,0-4.369-0.836-6.033-2.5c-3.337-3.337-3.337-8.73,0-12.066l42.667-42.667 c3.337-3.337,8.73-3.337,12.066,0c3.337,3.337,3.337,8.73,0,12.066l-42.667,42.667C362.769,469.497,360.585,470.333,358.4,470.333 "/> <path style="fill:#1B8E4A;" d="M358.4,470.333c-2.185,0-4.369-0.836-6.033-2.5L309.7,425.166c-3.337-3.337-3.337-8.73,0-12.066 c3.337-3.337,8.73-3.337,12.066,0l42.667,42.667c3.337,3.337,3.337,8.73,0,12.066C362.769,469.497,360.585,470.333,358.4,470.333"/> </g> <g> <path style="fill:#804537;" d="M401.067,188.733c-2.185,0-4.369-0.836-6.033-2.5l-25.6-25.6c-3.337-3.337-3.337-8.73,0-12.066 c3.337-3.337,8.73-3.337,12.066,0l25.6,25.6c3.337,3.337,3.337,8.73,0,12.066C405.436,187.897,403.251,188.733,401.067,188.733"/> <path style="fill:#804537;" d="M401.067,188.733c-2.185,0-4.369-0.836-6.033-2.5c-3.337-3.337-3.337-8.73,0-12.066l25.6-25.6 c3.337-3.337,8.73-3.337,12.066,0s3.337,8.73,0,12.066l-25.6,25.6C405.436,187.897,403.251,188.733,401.067,188.733"/> </g> <polygon style="fill:#E2D0B8;" points="51.2,461.797 153.6,461.797 153.6,427.664 51.2,427.664 "/> <path style="fill:#BAA388;" d="M119.467,350.867H85.333c0,34.133-10.547,76.8-34.133,76.8h102.4 C130.014,427.667,119.467,385,119.467,350.867"/> <path style="fill:#E2D0B8;" d="M51.2,308.2c0,28.279,22.921,51.2,51.2,51.2s51.2-22.921,51.2-51.2H51.2z"/> <path style="fill:#95A5A5;" d="M503.467,470.333H8.533C3.814,470.333,0,466.519,0,461.8c0-4.719,3.814-8.533,8.533-8.533h494.933 c4.719,0,8.533,3.814,8.533,8.533C512,466.519,508.186,470.333,503.467,470.333"/> </g> </g>
</svg>